<?xml version="1.0" encoding="UTF-8"?>
<svg version="1.1" xmlns="http://www.w3.org/2000/svg" width="993" height="160">
    <path d="M0 0 C327.69 0 655.38 0 993 0 C993 52.8 993 105.6 993 160 C665.31 160 337.62 160 0 160 C0 107.2 0 54.4 0 0 Z " fill="#273617" transform="translate(0,0)"/>
    <path d="M0 0 C24.42 0 48.84 0 74 0 C71.61237819 2.38762181 69.30366715 3.37302257 66.25 4.8125 C61.52701832 7.11736036 57.89207225 9.51761957 54 13 C53.34 13 52.68 13 52 13 C51.690625 13.78375 51.38125 14.5675 51.0625 15.375 C50 18 50 18 49 20 C48.34 20 47.68 20 47 20 C46.814375 21.0209375 46.814375 21.0209375 46.625 22.0625 C44.64864865 31.35135135 44.64864865 31.35135135 43 33 C41.76587472 42.83369628 41.8941286 52.76054265 41.98596573 62.65041542 C42.00839175 65.1785822 42.02220405 67.7066699 42.03366089 70.23490906 C42.06689388 77.41167805 42.10901104 84.5883138 42.17138672 91.76489258 C42.20918642 96.18360753 42.23209622 100.60219488 42.24569321 105.02104759 C42.25369394 106.69108869 42.2672258 108.36111358 42.28662491 110.03106117 C42.42239776 121.91000418 41.31818046 130.76019029 35 141 C34.34 141 33.68 141 33 141 C32.34 142.65 31.68 144.3 31 146 C30.34 146 29.68 146 29 146 C28.67 146.99 28.34 147.98 28 149 C23.01962142 153.05291012 16.88482365 155.56161242 11 158 C11 158.66 11 159.32 11 160 C7.37 160 3.74 160 0 160 C0 107.2 0 54.4 0 0 Z " fill="#212121" transform="translate(0,0)"/>
    <path d="M0 0 C21.78 0 43.56 0 66 0 C66 52.8 66 105.6 66 160 C63.36 160 60.72 160 58 160 C58.66 159.01 59.32 158.02 60 157 C60.33 157 60.66 157 61 157 C59.824375 156.4225 58.64875 155.845 57.4375 155.25 C56.70402344 154.87746094 55.97054687 154.50492188 55.21484375 154.12109375 C53.32106064 153.16251218 51.41194239 152.23432937 49.5 151.3125 C41.2017716 146.42450245 35.94497404 137.97395524 33 129 C32.16547312 124.13895491 31.88204811 119.48668775 31.90234375 114.55859375 C31.90380402 113.85014816 31.90526428 113.14170258 31.9067688 112.41178894 C31.91055223 110.88407688 31.91664462 109.3563691 31.92483521 107.82867432 C31.93771966 105.39602787 31.94414633 102.96343672 31.94897461 100.53076172 C31.96227566 94.48351188 31.98634375 88.4363142 32.01037598 82.38909912 C32.03029318 77.28081541 32.04586167 72.17255239 32.05593872 67.0642395 C32.06231332 64.69439937 32.07482415 62.32464658 32.08764648 59.95483398 C32.88802791 41.03564508 32.88802791 41.03564508 26.9375 23.6875 C23 17.09807692 23 17.09807692 23 15 C21.35 14.34 19.7 13.68 18 13 C18 12.01 18 11.02 18 10 C17.38125 9.690625 16.7625 9.38125 16.125 9.0625 C14.75 8.375 13.375 7.6875 12 7 C12 6.34 12 5.68 12 5 C11.21753906 4.80664062 10.43507813 4.61328125 9.62890625 4.4140625 C8.61699219 4.15367187 7.60507812 3.89328125 6.5625 3.625 C5.55316406 3.36976562 4.54382813 3.11453125 3.50390625 2.8515625 C1 2 1 2 0 0 Z " fill="#212121" transform="translate(927,0)"/>
    <path d="M0 0 C0.33 0.66 0.66 1.32 1 2 C0.34 1.67 -0.32 1.34 -1 1 C-0.67 0.67 -0.34 0.34 0 0 Z M-3 1 C-2.34 1.33 -1.68 1.66 -1 2 C-1.33 2.99 -1.66 3.98 -2 5 C-4.64 5.33 -7.28 5.66 -10 6 C-10.33 8.64 -10.66 11.28 -11 14 C-13.31 13.34 -15.62 12.68 -18 12 C-18.33 12.99 -18.66 13.98 -19 15 C-21.0625 15.6875 -21.0625 15.6875 -23 16 C-21.67651031 12.02953092 -19.14588989 10.72716017 -15.8125 8.5 C-15.24724609 8.10941406 -14.68199219 7.71882812 -14.09960938 7.31640625 C-10.54031579 4.89461886 -6.97059056 2.70086079 -3 1 Z " fill="#313D26" transform="translate(74,0)"/>
    <path d="M0 0 C5.28 0 10.56 0 16 0 C15.67 0.99 15.34 1.98 15 3 C14.65772583 4.33106622 14.32248257 5.66400079 14 7 C13.34 7 12.68 7 12 7 C12 6.34 12 5.68 12 5 C11.21753906 4.80664062 10.43507813 4.61328125 9.62890625 4.4140625 C8.61699219 4.15367187 7.60507812 3.89328125 6.5625 3.625 C5.55316406 3.36976562 4.54382813 3.11453125 3.50390625 2.8515625 C1 2 1 2 0 0 Z " fill="#161616" transform="translate(927,0)"/>
    <path d="M0 0 C2.38564077 0.57584432 4.66682784 1.22227595 7 2 C7 2.66 7 3.32 7 4 C9.64 4.33 12.28 4.66 15 5 C15 5.66 15 6.32 15 7 C14.195625 7.144375 13.39125 7.28875 12.5625 7.4375 C10.07896294 7.74135249 10.07896294 7.74135249 9 9 C7.33382885 9.04063832 5.66611905 9.042721 4 9 C3.566875 7.88625 3.566875 7.88625 3.125 6.75 C2.17697356 4.43260203 1.15154089 2.22082885 0 0 Z " fill="#39442E" transform="translate(976,151)"/>
    <path d="M0 0 C1.6875 1.4375 1.6875 1.4375 3.6875 5.4375 C-0.2725 5.4375 -4.2325 5.4375 -8.3125 5.4375 C-8.6425 4.4475 -8.9725 3.4575 -9.3125 2.4375 C-2.98522727 -0.72613636 -2.98522727 -0.72613636 0 0 Z " fill="#2F3D22" transform="translate(19.3125,154.5625)"/>
    <path d="M0 0 C0.99 0 1.98 0 3 0 C6 4.22222222 6 4.22222222 6 7 C4.329375 7.2165625 4.329375 7.2165625 2.625 7.4375 C-0.82142047 7.78372035 -0.82142047 7.78372035 -3 9 C-1.25 5.125 -1.25 5.125 1 4 C0.67 2.68 0.34 1.36 0 0 Z " fill="#2D3B20" transform="translate(947,15)"/>
    <path d="M0 0 C2.60334924 2.71182212 2.99456691 3.89133813 3.1875 7.75 C3.125625 8.8225 3.06375 9.895 3 11 C1.68 10.67 0.36 10.34 -1 10 C-0.979375 8.88625 -0.95875 7.7725 -0.9375 6.625 C-0.73619282 3.16784079 -0.73619282 3.16784079 -2 1 C-1.34 0.67 -0.68 0.34 0 0 Z " fill="#38432F" transform="translate(956,29)"/>
    <path d="M0 0 C0.33 0.66 0.66 1.32 1 2 C0.34 1.67 -0.32 1.34 -1 1 C-0.67 0.67 -0.34 0.34 0 0 Z M-3 1 C-2.34 1.33 -1.68 1.66 -1 2 C-1.33 2.99 -1.66 3.98 -2 5 C-6.455 5.495 -6.455 5.495 -11 6 C-8.45378681 3.99940392 -6.01962385 2.20784954 -3 1 Z " fill="#3D4534" transform="translate(74,0)"/>
    <path d="M0 0 C0.33 0.66 0.66 1.32 1 2 C1.99 2.33 2.98 2.66 4 3 C4.33 4.65 4.66 6.3 5 8 C3.02 8.99 3.02 8.99 1 10 C0.67 6.7 0.34 3.4 0 0 Z " fill="#333F25" transform="translate(938,5)"/>
</svg>
